/* XPM */
static char * icon_xpm[] = {
"64 64 268 2",
"  	c #1C3F58",
". 	c #21415A",
"+ 	c #3A5063",
"@ 	c #546372",
"# 	c #66717E",
"$ 	c #747D88",
"% 	c #7F8791",
"& 	c #808891",
"* 	c #7E8690",
"= 	c #7B838D",
"- 	c #717B86",
"; 	c #616D7B",
"> 	c #4F5E6F",
", 	c #374E62",
"' 	c #26445B",
") 	c #526171",
"! 	c #858D96",
"~ 	c #AAAFB4",
"{ 	c #BBBEC2",
"] 	c #CDCFD2",
"^ 	c #DDDEE0",
"/ 	c #EBECED",
"( 	c #F6F6F7",
"_ 	c #F8F9F9",
": 	c #F6F6F6",
"< 	c #F2F2F3",
"[ 	c #E8E9EA",
"} 	c #D9DBDD",
"| 	c #C9CCCF",
"1 	c #B8BBBF",
"2 	c #899099",
"3 	c #586674",
"4 	c #2A465C",
"5 	c #79818C",
"6 	c #B9BCC0",
"7 	c #D4D6D8",
"8 	c #E9EAEB",
"9 	c #FDFDFD",
"0 	c #FFFFFF",
"a 	c #D6D8DA",
"b 	c #BCBFC3",
"c 	c #7D858F",
"d 	c #D7D9DB",
"e 	c #FAFAFA",
"f 	c #FBFBFB",
"g 	c #ECEDEE",
"h 	c #DADBDD",
"i 	c #848C95",
"j 	c #CCCED1",
"k 	c #FEFEFE",
"l 	c #F7F7F8",
"m 	c #D0D2D4",
"n 	c #687380",
"o 	c #425567",
"p 	c #9A9FA6",
"q 	c #EDEEEE",
"r 	c #9FA4AA",
"s 	c #445769",
"t 	c #64707D",
"u 	c #C2C5C8",
"v 	c #C3C5C9",
"w 	c #636F7C",
"x 	c #878F97",
"y 	c #DFE0E2",
"z 	c #D8DADC",
"A 	c #46586A",
"B 	c #C4C6CA",
"C 	c #A2A7AD",
"D 	c #A0A5AB",
"E 	c #6F7984",
"F 	c #EEEEEF",
"G 	c #6C7782",
"H 	c #2E485E",
"I 	c #D2D4D7",
"J 	c #D1D3D6",
"K 	c #92989F",
"L 	c #F7F8F8",
"M 	c #8F969D",
"N 	c #314A5F",
"O 	c #DADCDE",
"P 	c #8B929A",
"Q 	c #EFEFF0",
"R 	c #EEEFF0",
"S 	c #889098",
"T 	c #192835",
"U 	c #000000",
"V 	c #3D3D3D",
"W 	c #EEEEEE",
"X 	c #B7B7B7",
"Y 	c #A7A7A7",
"Z 	c #535353",
"` 	c #888888",
" .	c #222222",
"..	c #494949",
"+.	c #767676",
"@.	c #A6A6A6",
"#.	c #DCDCDC",
"$.	c #FBFCFC",
"%.	c #C0C3C7",
"&.	c #4E5761",
"*.	c #EAEAEA",
"=.	c #CBCBCB",
"-.	c #838383",
";.	c #707070",
">.	c #9E9E9E",
",.	c #818181",
"'.	c #F0F0F0",
").	c #888E94",
"!.	c #CDCDCD",
"~.	c #262626",
"{.	c #F8F8F8",
"].	c #0D0D0D",
"^.	c #EFEFEF",
"/.	c #F1F1F2",
"(.	c #949AA1",
"_.	c #AFB3B7",
":.	c #545454",
"<.	c #A8A8A8",
"[.	c #555555",
"}.	c #DFDFDF",
"|.	c #6A6A6A",
"1.	c #979797",
"2.	c #808080",
"3.	c #1C1C1C",
"4.	c #8C8C8C",
"5.	c #AEB2B7",
"6.	c #C1C4C8",
"7.	c #757575",
"8.	c #EBEBEB",
"9.	c #BBBBBB",
"0.	c #BABABA",
"a.	c #5F5F5F",
"b.	c #B6B6B6",
"c.	c #F1F1F1",
"d.	c #7F7F7F",
"e.	c #BDC1C4",
"f.	c #3F5366",
"g.	c #5E6B79",
"h.	c #D5D7D9",
"i.	c #161616",
"j.	c #C7C7C7",
"k.	c #8D8D8D",
"l.	c #A5A5A5",
"m.	c #CCCCCC",
"n.	c #E0E0E0",
"o.	c #999999",
"p.	c #323232",
"q.	c #FCFCFC",
"r.	c #404040",
"s.	c #D1D1D1",
"t.	c #787878",
"u.	c #BDBDBD",
"v.	c #E3E5E6",
"w.	c #F5F5F6",
"x.	c #606060",
"y.	c #C1C1C1",
"z.	c #4B4B4B",
"A.	c #2E2E2E",
"B.	c #E2E2E2",
"C.	c #F3F3F3",
"D.	c #BFBFBF",
"E.	c #F3F3F4",
"F.	c #7C848E",
"G.	c #838B94",
"H.	c #A4A4A4",
"I.	c #E8E8E8",
"J.	c #AFAFAF",
"K.	c #BEBEBE",
"L.	c #6C6C6C",
"M.	c #454545",
"N.	c #D3D3D3",
"O.	c #868E96",
"P.	c #D0D0D0",
"Q.	c #5A5A5A",
"R.	c #C4C4C4",
"S.	c #8E8E8E",
"T.	c #A3A3A3",
"U.	c #ABABAB",
"V.	c #C9C9C9",
"W.	c #F4F4F4",
"X.	c #F2F2F2",
"Y.	c #949494",
"Z.	c #717171",
"`.	c #969696",
" +	c #3B3B3B",
".+	c #D6D6D6",
"++	c #E7E7E7",
"@+	c #B3B3B3",
"#+	c #424242",
"$+	c #AEAEAE",
"%+	c #E5E5E5",
"&+	c #F9F9FA",
"*+	c #818992",
"=+	c #F1F2F3",
"-+	c #AAAAAA",
";+	c #B4B4B4",
">+	c #D7D7D7",
",+	c #ECECEC",
"'+	c #C2C2C2",
")+	c #DADADA",
"!+	c #777777",
"~+	c #E4E4E4",
"{+	c #767F8A",
"]+	c #6A7581",
"^+	c #E0E2E3",
"/+	c #D5D5D5",
"(+	c #878787",
"_+	c #C0C0C0",
":+	c #F7F7F7",
"<+	c #585858",
"[+	c #B2B2B2",
"}+	c #A0A0A0",
"|+	c #8A8A8A",
"1+	c #797979",
"2+	c #A2A2A2",
"3+	c #868686",
"4+	c #989898",
"5+	c #CBCDD0",
"6+	c #BABDC1",
"7+	c #F9F9F9",
"8+	c #ABAFB4",
"9+	c #B0B0B0",
"0+	c #DBDBDB",
"a+	c #A9AEB3",
"b+	c #EAEBEC",
"c+	c #D9D9D9",
"d+	c #6D6D6D",
"e+	c #B8B8B8",
"f+	c #828282",
"g+	c #ADADAD",
"h+	c #B6BABE",
"i+	c #7E7E7E",
"j+	c #B9B9B9",
"k+	c #B5B8BD",
"l+	c #737C87",
"m+	c #898989",
"n+	c #DEDEDE",
"o+	c #D4D5D8",
"p+	c #E5E6E8",
"q+	c #E7E8E9",
"r+	c #566473",
"s+	c #8E959C",
"t+	c #F8F8F9",
"u+	c #B7BABF",
"v+	c #596775",
"w+	c #CFD1D4",
"x+	c #FCFCFD",
"y+	c #707A85",
"z+	c #DBDCDE",
"A+	c #7A828C",
"B+	c #D3D5D7",
"C+	c #757E89",
"D+	c #BFC2C5",
"E+	c #9BA1A7",
"F+	c #989EA4",
"G+	c #3D5165",
"H+	c #8D949C",
"I+	c #C1C4C7",
"J+	c #BDC0C4",
"K+	c #BFC2C6",
"L+	c #D5D6D9",
"M+	c #E7E8EA",
"N+	c #F2F3F4",
"O+	c #E2E3E5",
"P+	c #ACB1B6",
"Q+	c #5B6876",
"R+	c #5D6A77",
"S+	c #6B7682",
"                                                                                                                                ",
"                                                                                                                                ",
"                                                                                                                                ",
"                                                                                                                                ",
"                                                  . + @ # $ % & * = - ; > , .                                                   ",
"                                            ' ) ! ~ { ] ^ / ( _ : < [ } | 1 ~ 2 3 4                                             ",
"                                        . 5 6 7 8 9 0 0 0 0 0 0 0 0 0 0 0 0 9 / a b & 4                                         ",
"                                    ' c d / e 0 0 0 0 0 0 0 0 0 0 0 0 0 0 0 0 0 0 f g h i '                                     ",
"                                  ; j ( k 0 0 0 0 0 0 0 0 0 0 0 0 0 0 0 0 0 0 0 0 0 0 k l m n                                   ",
"                              o p / 0 0 0 0 0 0 0 0 0 0 0 0 0 0 0 0 0 0 0 0 0 0 0 0 0 0 0 0 q r s                               ",
"                            t u e 0 0 0 0 0 0 0 0 0 0 0 0 0 0 0 0 0 0 0 0 0 0 0 0 0 0 0 0 0 0 e v w                             ",
"                        . c d 0 0 0 0 0 0 0 0 0 0 0 0 0 0 0 0 0 0 0 0 0 0 0 0 0 0 0 0 0 0 0 0 0 0 d c .                         ",
"                      . x y 0 0 0 0 0 0 0 0 0 0 0 0 0 0 0 0 0 0 0 0 0 0 0 0 0 0 0 0 0 0 0 0 0 0 0 0 y x .                       ",
"                      * y 9 0 0 0 0 0 0 0 0 0 0 0 0 0 0 0 0 0 0 0 0 0 0 0 0 0 0 0 0 0 0 0 0 0 0 0 0 9 y *                       ",
"                    # } 0 0 0 0 0 0 0 0 0 0 0 0 0 0 0 0 0 0 0 0 0 0 0 0 0 0 0 0 0 0 0 0 0 0 0 0 0 0 0 0 z #                     ",
"                  A B 0 0 0 0 0 0 0 0 0 0 0 0 0 0 0 0 0 0 0 0 0 0 0 0 0 0 0 0 0 0 0 0 0 0 0 0 0 0 0 0 0 0 B A                   ",
"                  C e 0 0 0 0 0 0 0 0 0 0 0 0 0 0 0 0 0 0 0 0 0 0 0 0 0 0 0 0 0 0 0 0 0 0 0 0 0 0 0 0 0 0 e D                   ",
"                E F 0 0 0 0 0 0 0 0 0 0 0 0 0 0 0 0 0 0 0 0 0 0 0 0 0 0 0 0 0 0 0 0 0 0 0 0 0 0 0 0 0 0 0 0 F G                 ",
"              H I 0 0 0 0 0 0 0 0 0 0 0 0 0 0 0 0 0 0 0 0 0 0 0 0 0 0 0 0 0 0 0 0 0 0 0 0 0 0 0 0 0 0 0 0 0 0 J H               ",
"              K L 0 0 0 0 0 0 0 0 0 0 0 0 0 0 0 0 0 0 0 0 0 0 0 0 0 0 0 0 0 0 0 0 0 0 0 0 0 0 0 0 0 0 0 0 0 0 L M               ",
"            N O k 0 0 0 0 0 0 0 0 0 0 0 0 0 0 0 0 0 0 0 0 0 0 0 0 0 0 0 0 0 0 0 0 0 0 0 0 0 0 0 0 0 0 0 0 0 0 k O H             ",
"            P Q 0 0 0 0 0 0 0 0 0 0 0 0 0 0 0 0 0 0 0 0 0 0 0 0 0 0 0 0 0 0 0 0 0 0 0 0 0 0 0 0 0 0 0 0 0 0 0 0 R S             ",
"          T U U U U V k 0 0 0 0 0 W U U U U U X 0 0 0 0 0 0 Y U U U U Z 0 0 0 0 ` U U U U U U U U  ...+.@.#.0 0 $.%.H           ",
"          &.U U U U U *.0 0 0 0 0 =.U U U U U -.0 0 0 0 0 0 ;.U U U U >.0 0 0 0 ` U U U U U U U U U U U U U ,.'.0 O w           ",
"          ).U U U U U !.0 0 0 0 0 >.U U U U U ~.f 0 0 0 0 {.].U U U U =.0 0 0 0 ` U U U U U U U U U U U U U U Z ^./.(.          ",
"        ' _.:.U U U U <.0 0 0 0 0 [.U U U U U U }.0 0 0 0 #.U U U U U W 0 0 0 0 ` U U U U |.1.1.1.2.3.U U U U U 4.k 5.'         ",
"        s 6.>.U U U U 7.0 0 0 0 8.U U U U U U U 9.0 0 0 0 0.U U U U a.0 0 0 0 0 ` U U U U b.0 0 0 0 c.d.U U U U U W e.f.        ",
"        g.h.=.U U U U i.e 0 0 0 j.U U U U U U U ` 0 0 0 0 k.U U U U l.0 0 0 0 0 ` U U U U b.0 0 0 0 0 c. .U U U U m.m 3         ",
"        - [ W U U U U U n.0 0 0 o.U U U U U U U p.q.0 0 k r.U U U U s.0 0 0 0 0 ` U U U U b.0 0 0 0 0 0 t.U U U U u.v.G         ",
"        * w.0 x.U U U U y.0 0 k z.U U U A.U U U U B.0 0 *.U U U U U C.0 0 0 0 0 ` U U U U b.0 0 0 0 0 0 d.U U U U D.E.F.        ",
"        G.$.0 H.U U U U o.0 0 I.U U U U J.U U U U K.0 0 =.U U U U L.0 0 0 0 0 0 ` U U U U b.0 0 0 0 0 9 M.U U U U N.f G.        ",
"        O.0 0 P.U U U U Q.0 0 R.U U U U C.M.U U U S.0 0 T.U U U U U.0 0 0 0 0 0 ` U U U U b.0 0 0 0 0 V.U U U U ].W.0 O.        ",
"        O.0 0 C.U U U U U X.0 Y.U U U Z.0 `.U U U  +9 0 |.U U U U .+0 0 0 0 0 0 ` U U U U b.0 k {.++@+ .U U U U o.0 0 O.        ",
"        G.f 0 0 |.U U U U .+k #+U U U $+0 j.U U U U %+: U U U U ].: 0 0 0 0 0 0 ` U U U U U U U U U U U U U U M.^.0 &+*+        ",
"        = =+0 0 -+U U U U ;+%+U U U U >+0 ,+U U U U '+)+U U U U !+0 0 0 0 0 0 0 ` U U U U U U U U U U U U U Z ~+0 0 g {+        ",
"        ]+^+0 0 /+U U U U (+_+U U U i.:+0 0 <+U U U Y.X U U U U [+0 0 0 0 0 0 0 ` U U U U U U U U U U U ].}+X.0 0 0 ^ #         ",
"        @ ] 0 0 : ].U U U  +|+U U U 1+0 0 0 2+U U U M.3+U U U U )+0 0 0 0 0 0 0 ` U U U U |.1.1.4+}+J.=.X.0 0 0 0 0 5+)         ",
"        , 6+0 0 0 7.U U U U ].U U U @+0 0 0 P.U U U U ].U U U 3.7+0 0 0 0 0 0 0 ` U U U U b.0 0 0 0 0 0 0 0 0 0 0 0 1 ,         ",
"        . 8+9 0 0 9+U U U U U U U U 0+0 0 0 X.U U U U U U U U ,.0 0 0 0 0 0 0 0 ` U U U U b.0 0 0 0 0 0 0 0 0 0 0 9 a+          ",
"          O.b+0 0 c+U U U U U U U  .e 0 0 0 0 d+U U U U U U U e+0 0 0 0 0 0 0 0 ` U U U U b.0 0 0 0 0 0 0 0 0 0 0 8 !           ",
"          ) 7 0 0 {.3.U U U U U U f+0 0 0 0 0 g+U U U U U U U }.0 0 0 0 0 0 0 0 ` U U U U b.0 0 0 0 0 0 0 0 0 0 0 7 )           ",
"          ' h+7+0 0 i+U U U U U U j+0 0 0 0 0 >+U U U U U U A.f 0 0 0 0 0 0 0 0 ` U U U U b.0 0 0 0 0 0 0 0 0 0 7+k+'           ",
"            l+b+0 0 b.U U U U U U }.0 0 0 0 0 {.3.U U U U U m+0 0 0 0 0 0 0 0 0 ` U U U U b.0 0 0 0 0 0 0 0 0 0 b+l+            ",
"            . I k 0 n+U U U U U A.f 0 0 0 0 0 0 i+U U U U U u.0 0 0 0 0 0 0 0 0 ` U U U U b.0 0 0 0 0 0 0 0 0 k o+.             ",
"              $ w.0 0 0 0 0 0 0 0 0 0 0 0 0 0 0 0 0 0 0 0 0 0 0 0 0 0 0 0 0 0 0 0 0 0 0 0 0 0 0 0 0 0 0 0 0 0 w.-               ",
"                v 0 0 0 0 0 0 0 0 0 0 0 0 0 0 0 0 0 0 0 0 0 0 0 0 0 0 0 0 0 0 0 0 0 0 0 0 0 0 0 0 0 0 0 0 0 0 v                 ",
"                @ p+0 0 0 0 0 0 0 0 0 0 0 0 0 0 0 0 0 0 0 0 0 0 0 0 0 0 0 0 0 0 0 0 0 0 0 0 0 0 0 0 0 0 0 0 q+r+                ",
"                  s+t+0 0 0 0 0 0 0 0 0 0 0 0 0 0 0 0 0 0 0 0 0 0 0 0 0 0 0 0 0 0 0 0 0 0 0 0 0 0 0 0 0 0 :+M                   ",
"                  + u+0 0 0 0 0 0 0 0 0 0 0 0 0 0 0 0 0 0 0 0 0 0 0 0 0 0 0 0 0 0 0 0 0 0 0 0 0 0 0 0 0 0 k+,                   ",
"                    v+w+k 0 0 0 0 0 0 0 0 0 0 0 0 0 0 0 0 0 0 0 0 0 0 0 0 0 0 0 0 0 0 0 0 0 0 0 0 0 0 k w+v+                    ",
"                      - } 9 0 0 0 0 0 0 0 0 0 0 0 0 0 0 0 0 0 0 0 0 0 0 0 0 0 0 0 0 0 0 0 0 0 0 0 0 x+z y+                      ",
"                      . * z+k 0 0 0 0 0 0 0 0 0 0 0 0 0 0 0 0 0 0 0 0 0 0 0 0 0 0 0 0 0 0 0 0 0 0 k h A+                        ",
"                        . {+B+0 0 0 0 0 0 0 0 0 0 0 0 0 0 0 0 0 0 0 0 0 0 0 0 0 0 0 0 0 0 0 0 0 0 w+C+.                         ",
"                            g.D+e 0 0 0 0 0 0 0 0 0 0 0 0 0 0 0 0 0 0 0 0 0 0 0 0 0 0 0 0 0 0 7+6 v+                            ",
"                              o E+g 0 0 0 0 0 0 0 0 0 0 0 0 0 0 0 0 0 0 0 0 0 0 0 0 0 0 0 0 b+F+G+                              ",
"                                  n m L k 0 0 0 0 0 0 0 0 0 0 0 0 0 0 0 0 0 0 0 0 0 0 k :+j ;                                   ",
"                                    4 H+O R $.0 0 0 0 0 0 0 0 0 0 0 0 0 0 0 0 0 0 f g z G.'                                     ",
"                                        H 2 I+z+/.k 0 0 0 0 0 0 0 0 0 0 0 0 k F d J+% '                                         ",
"                                            H t (._.K+L+M+w.$.0 0 f N+O+w+b P+s+Q+4                                             ",
"                                                  ' o R+y+c G.O.O.G.F.S+r+G+.                                                   ",
"                                                                                                                                ",
"                                                                                                                                ",
"                                                                                                                                ",
"                                                                                                                                "};
